<?xml version="1.0" encoding="UTF-8"?>
<svg id="Layer_1" data-name="Layer 1" xmlns="http://www.w3.org/2000/svg" viewBox="0 0 32.06 32.06" width="28" height="28">
  <path fill="white" d="M22.64,9.67s-.4.53-.62.68c-.65.47-1.84.57-2.08,1.45-.09.34.08.97-.36,1.05-.78.14-.5-1.19-.3-1.59.53-1.07,1.5-1,2.29-1.58.18-.13.58-.49.56-.71-.1-.96-1.75-1.92-2.64-1.99-3.64-.29-2.17,3.82-2.5,6-.21.38-.72.33-.8-.11-.11-.65-.06-4.12.1-4.74.77-2.98,5.09-2.28,6.42.1.08.14.24.65.28.69.03.04.71.34.87.45.99.68,1.54,1.76,1.65,2.94.02.2-.05.69-.03.8.01.05.52.57.61.7,1.09,1.53,1.12,3.79,0,5.31-.09.12-.56.58-.57.62-.06.17,0,.48-.02.67-.16,1.24-.66,2.3-1.75,2.98-.17.1-.8.35-.83.39s-.31.68-.43.85c-1.36,1.98-4.61,2.3-6.31.57-.05-.06-.14-.23-.16-.24-.04-.01-.48.49-.6.58-1.8,1.37-4.91.92-6.11-1.05-.08-.14-.28-.68-.31-.71-.02-.02-.33-.1-.41-.14-1.06-.55-1.82-1.43-2.07-2.62-.08-.36-.04-1.01-.12-1.26-.02-.06-.66-.8-.79-1.05-.74-1.41-.69-3.24.12-4.61.13-.22.75-.89.77-.95.04-.13-.04-.6-.03-.81.09-1.26.62-2.28,1.66-3,.14-.09.78-.4.81-.44.05-.06.26-.63.37-.82,1.59-2.56,6.14-2.8,6.41.72.03.33.04,2.34-.05,2.51-.14.3-.7.25-.78-.09-.14-.55.04-1.75-.01-2.39-.23-2.61-3.61-2.22-4.79-.45-.2.3-.39.95-.54,1.11s-.66.32-.89.46c-.86.53-1.36,1.49-1.37,2.5,0,.29.14.72.04.98-.06.17-.62.64-.79.9-.84,1.27-.83,3.18.07,4.42.13.18.55.53.6.68.1.28.03.87.08,1.23.15,1,.75,1.78,1.63,2.25.21.11.52.13.69.28s.34.8.56,1.09c.98,1.31,3.24,1.63,4.58.7,1.74-1.2.17-2.76.28-4.34.02-.29.06-.65.45-.64.6.01.36,1.01.43,1.45s.33.85.42,1.3c.19,1.02-.21,1.5.78,2.22,1.3.95,3.56.6,4.56-.65.23-.29.45-1,.61-1.14s.73-.28,1.01-.46c.91-.59,1.26-1.5,1.37-2.54.02-.22-.07-.42-.02-.64.04-.19.67-.77.84-1.03.76-1.19.75-2.92-.02-4.1-.15-.24-.79-.83-.84-.95-.08-.24.04-.67.03-.94-.03-1.05-.6-2.09-1.51-2.62-.07-.04-.52-.26-.55-.24Z"/>
  <path fill="white" d="M9.81,13.92c.33-.04.66.03.9.27.21.21,1.48,3.75,1.56,4.19.07.38-.1.65-.52.56-.46-.1-.48-1.37-.79-1.43-.14-.03-1.97-.04-2.06,0-.13.07-.34,1.17-.53,1.34-.31.26-.73.03-.7-.39.02-.31,1.17-3.61,1.36-3.96.16-.29.45-.54.79-.59ZM10.82,16.76c-.27-.52-.39-1.43-.67-1.91-.2-.34-.3-.17-.41.09-.24.54-.39,1.26-.6,1.82h1.69Z"/>
  <path fill="white" d="M21.05,17.51c-.1.07-.31,1.17-.52,1.34-.29.23-.71.06-.71-.33,0-.27,1.16-3.57,1.34-3.95.33-.69,1.19-.94,1.74-.35.2.22,1.45,3.66,1.55,4.11.06.28.08.57-.3.61-.65.07-.61-1.04-.92-1.42-.26.02-2.09-.07-2.19-.01ZM22.99,16.76c-.26-.52-.4-1.46-.68-1.93-.14-.23-.22-.23-.35,0-.28.52-.4,1.37-.66,1.92h1.69Z"/>
  <path fill="white" d="M15.47,13.92c.25-.04.38.08.48.28.5.99.65,2.66,1.15,3.7.07.14.13.35.32.22.24-.17,1.14-3.54,1.41-4.03.37-.37.81-.15.73.39-.05.38-1.27,3.88-1.46,4.11-.54.65-1.41.41-1.76-.31-.22-.45-1.16-3.39-1.21-3.83-.02-.25.05-.49.33-.53Z"/>
  <path fill="white" d="M10,20.71c.22-.06.63.14.9.15.43.01.85-.14,1.31-.09,1.04.11,1.79,1.17,1.52,2.2-.1.38-.61,1.04-.93.5-.22-.37.37-.74.05-1.4-.53-1.09-2.35.01-2.98-.71-.17-.2-.13-.58.13-.65Z"/>
  <path fill="white" d="M12.85,9.42c.48-.07.52.35.39.7-.49,1.28-2.33.95-2.67,1.58-.28.51.39,1.21-.21,1.35-.71.17-.77-1.03-.63-1.47.42-1.37,2.01-.8,2.66-1.63.15-.19.16-.5.46-.54Z"/>
  <path fill="white" d="M13.63,13.92c.29-.04.47.15.51.41.09.64.1,3.64,0,4.25-.08.48-.77.5-.85-.03-.08-.59-.1-3.76,0-4.32.03-.17.17-.3.34-.32Z"/>
  <path fill="white" d="M21.38,19.99c.71-.09.43.69.18,1.02-.77,1.01-1.86.56-2.56,1.07-.2.15-.57.8-.91.28s.56-1.07.97-1.18c.63-.18,1.34-.05,1.83-.61.17-.2.21-.53.49-.57Z"/>
</svg>