<?xml version="1.0" encoding="UTF-8"?>
<svg id="Layer_1" data-name="Layer 1" xmlns="http://www.w3.org/2000/svg" viewBox="0 0 328.28 328.28">
  <defs>
    <style>
      .cls-1 {
        fill: #fff;
      }
    </style>
  </defs>
  <path class="cls-1" d="M328.28,0v328.28H0V0h328.28ZM232.2,98.64c.29-.29,2.12,1.2,2.72.96,13.96,6.87,19.2,19.27,18.1,34.11,0,.11-.31.21-.32.32-.06.72-.12,2.24,0,2.88.02.09.54.46.32.96,1.87,2.1,4.27,3.97,6.09,6.09,3.68,4.28,6.58,10.72,7.69,16.01,1.01,4.87.91,12.08,0,16.97-1.03,5.5-3.96,11.14-7.37,15.69l-5.44,5.44c-.16.55-.43,1.06-.64,1.6-.05.14-.29.2-.32.32-.14.61-.06,2.47,0,3.2.18,2.36.26,4.52,0,7.05-.04.41-.54,1.77-.64,2.24-1.12,5.39-2.56,9-6.09,13.45-4.27,5.39-8.58,7.98-14.89,10.09-.56.19-1.4.29-1.92.64-.82.54-1.08,1.47-1.76,2.08-5.08,20.47-34.32,28.37-50.76,17.45-2.46-1.63-5.75-4.96-7.21-7.53-.36-.63-.46-1.31-.64-1.92-.04-.13-.3-.2-.32-.32-.42-2.33.17-6.06,0-8.65-.06-.86-.5-2.61-.64-3.52-.54-3.61-1.28-5.58-2.56-8.97-1.82-4.78-2.9-9.67-1.92-15.05.16-.89-.26-1.27-.32-1.6-.07-.39.08-.91,0-1.28-.03-.11-.26-.18-.32-.32-.05-.1.04-.25,0-.32-.12-.2-1.25-1.32-1.44-1.44-.07-.04-.22.05-.32,0-.13-.06-.2-.27-.32-.32-.17-.07-.43.06-.64,0-.13-.04-.2-.3-.32-.32-.35-.06-1.25-.06-1.6,0-.12.02-.19.28-.32.32-.21.06-.47-.07-.64,0-.13.05-.19.26-.32.32-.1.05-.25-.04-.32,0-.76.45-1.14,1.32-1.44,2.08-.05.14-.29.2-.32.32-.13.61.07,1.55,0,2.24-.66,6.3.18,11.8,2.24,17.61.47,1.32,1.12,2.72,1.6,4.16,1.05,3.16,1.53,7.52,1.28,11.21,0,.11-.31.21-.32.32-.07.88.16,2.12,0,2.88-.05.22-.8,1.58-.96,1.92-11.84,19.6-47.3,16.3-56.69-4.16-.54-1.18-1.12-2.58-1.6-3.84-.19-.49-.3-1.4-.64-1.92-.18-.27-1.18-1.27-1.44-1.44-.55-.37-1.39-.46-1.92-.64-2.47-.82-5.01-1.75-7.37-3.2-7.67-4.72-12.11-12.84-13.61-21.3-.12-.7-.59-2.24-.64-2.88-.22-2.7.44-6.51,0-8.97-.02-.12-.28-.19-.32-.32-.06-.21.07-.47,0-.64-.05-.13-.26-.19-.32-.32-.05-.1.04-.25,0-.32-.77-1.29-3.63-3.42-4.8-4.8-3.73-4.4-6.94-11.94-7.69-17.29-.4-2.88-.57-6.27-.32-8.97.29-3.09.28-5.72.96-8.65s2.57-7.49,4.16-10.25c1.76-3.04,4.16-5.62,6.89-7.85.48-.4,1.79-1.9,2.08-2.4.04-.07-.05-.22,0-.32.06-.14.29-.2.32-.32.07-.27-.06-.67,0-.96.03-.13.3-.2.32-.32.05-.29.05-.99,0-1.28-.02-.12-.3-.2-.32-.32-.35-2.43-.59-5.47-.32-7.69.21-1.73.04-3.43.32-5.12,1.76-10.51,9.03-18.17,18.74-22.58.66-.3,1.82-.52,2.56-.96.21-.12,1.36-1,1.44-1.12.36-.58,1.03-1.57,1.28-2.24.34-.92.55-1.81.96-2.88,3.89-10.25,12.65-17.15,22.9-19.7,1.09-.27,2.77-.85,3.84-.96,1.85-.19,6.19-.22,8.01,0,.31.04,1.54.55,1.92.64,1.87.45,3.34,1.09,5.12,1.6.08.02.99.77,1.28.96,4.06,2.64,7.24,6.69,8.49,11.37.33,1.23.1,2.78.64,3.84v24.98c.48.26.23.65.32.96.03.12,1.64,1.73,1.76,1.76.2.06.45-.06.64,0,.13.04.2.3.32.32.47.08,2.45.1,2.88,0,.11-.03.18-.26.32-.32.1-.05.25.04.32,0,.19-.11,1.73-1.64,1.76-1.76.09-.31-.16-.7.32-.96-.15-9.27.34-18.81-.32-27.86-1.7-12.02-11.28-21.12-22.9-23.54-1.6-.33-3.14-.2-4.8-.32-.11,0-.21-.31-.32-.32-3.69-.28-8.55.73-11.85,1.6-9.89,2.61-18.47,8.45-24.5,17.13-1.68,2.42-3.76,5.64-4.48,8.33-.12.45.04,1.52-.8,1.76-1.58.45-2.69,1.11-4.16,1.92-10.17,5.57-16.68,13.73-19.38,24.82-1.12,4.62-1.43,8.82-.96,13.77.05.53.11,2.16,0,2.56-.09.32-3.56,3.45-4.16,4.16-5.1,6.02-8.88,15.25-9.93,22.74s-.26,16.49,1.92,23.06c1.74,5.25,5.12,10.97,8.65,15.05.42.48,2.5,2.33,2.56,2.56.32,1.15-.1,4.26,0,5.76.16,2.38.79,5.08,1.28,7.37,2.07,9.62,7.22,17.4,15.21,23.22,2.75,2,6.08,3.93,9.29,4.8.24.06.73-.07.8,0s-.06.56,0,.8c1.99,7.29,9.48,15.33,15.85,19.06,11.84,6.62,26.24,8.15,39.07,3.84,5.99-2.01,11.48-5.58,15.53-10.41.33-.39.82-.9,1.28-1.12-.12.7.6.98.96,1.44,9.13,11.76,26.2,14.54,39.87,11.37,3.84-.89,8.22-2.59,11.85-4.48,7.81-4.08,13.96-10.6,17.45-18.74l.32-1.6c.4-.71.95-.35,1.44-.48,1.33-.36,3.37-1.45,4.8-2.24,8.81-4.84,14.94-12.23,18.1-21.62.97-2.88,1.96-6.5,2.24-9.61.21-2.35-.16-4.98,0-7.37,18.09-15.8,19.18-45.86,3.84-63.73-.6-.7-4.08-3.86-4.16-4.16-.21-.76.3-1.16.32-1.28.58-3.98-.2-9.25-.96-12.81-1.25-5.84-3.51-11.35-7.37-16.33-4.45-5.76-10.08-9.35-16.49-12.33-.16-.07-.43.06-.64,0-.82-.24-.69-1.28-.8-1.76-.65-2.78-2.51-5.91-4.16-8.33-9.26-13.64-27.26-21.45-43.08-17.77-2.35.55-5.13,1.85-7.37,2.88-5.29,2.45-11,9.11-12.97,14.57-.85,2.35-.99,4.75-1.6,7.05v43.88c.49.25.22.71.32.96.05.13.26.19.32.32.05.1-.04.25,0,.32.45.76,1.32,1.14,2.08,1.44.14.05.2.29.32.32.35.08,1.89.08,2.24,0,.1-.02.75-.52.96-.64.08-.05.25.05.32,0,.71-.47,1.33-1.45,1.76-2.08v-42.92c.54-1.15.37-2.85.64-4.16.22-1.08,1.22-2.78,1.6-3.84,7.71-14.28,28.13-12.4,39.55-4,4.18,3.07,9.01,8.71,10.41,13.61.04.13.3.2.32.32.05.3.07,1.35,0,1.6-.06.22-2.44,2.4-2.88,2.88-5.36,5.88-9.84,5.55-16.17,9.13-5.16,2.92-9.17,6.78-11.37,12.33-.41,1.03-.46,2.2-.64,3.2-.02.12-.31.2-.32.32-.15,1.24-.2,5.58,0,6.73.02.12.28.19.32.32.06.21-.07.46,0,.64.07.2.5.72.64.96.05.08-.05.25,0,.32.11.17.64.71.8.8.07.04.22-.05.32,0,.13.06.2.27.32.32.17.07.43-.06.64,0,.13.04.2.3.32.32.37.07,1.58.07,1.92,0,.1-.02.75-.52.96-.64.08-.05.25.05.32,0,.24-.16,1.31-1.22,1.44-1.44.04-.07-.05-.22,0-.32.06-.14.29-.21.32-.32.35-1.56-.22-4.32,0-6.09.01-.12.3-.2.32-.32.12-.7.06-1.54.32-2.24,2.03-5.51,7.83-8.12,12.65-10.09,5.66-2.32,9.29-3.77,13.29-8.81.45-.56,1.26-1.3,1.6-1.92.08-.15-.06-.42,0-.48ZM131.79,96.08c-.09.02-.46.54-.96.32-.47.62-1.34.77-1.76,1.44-.57.9-1.03,2.66-1.6,3.52-.32.48-2.21,2.34-2.72,2.72-1.08.81-3.08,1.45-4.48,1.92-3.2,1.07-6.65,1.35-9.93,2.24-.76.21-2.39,1.14-3.2,1.6-2.85,1.61-4.27,2.98-5.92,5.92-.12.22-.59.48-.64.64-.37,1.28-.7,2.2-.96,3.52-.02.12-.3.2-.32.32-.11.77.16,1.86,0,2.56-.03.13-.44.22-.32.64.3,1.1.19,1.49.32,2.56.04.32.54,1.53.64,1.92.28,1.08.69,2.64,1.28,3.52.15.22,1.64,1.73,1.76,1.76.2.06.45-.06.64,0,.13.04.2.3.32.32.44.08,1.8.08,2.24,0,.12-.02.19-.28.32-.32.19-.06.44.06.64,0,.14-.04,2.04-1.94,2.08-2.08.08-.29.07-2.23,0-2.56-.06-.28-.83-1.24-.96-1.6-.2-.54-.21-1.36-.32-1.92-.02-.12-.3-.2-.32-.32-.09-.64-.11-2.6,0-3.2.02-.12.28-.19.32-.32.06-.21-.07-.46,0-.64.07-.2.5-.72.64-.96.05-.08-.05-.25,0-.32.79-1.19,2.45-2.17,3.68-2.72,2.96-1.34,5.94-1.46,8.97-2.24,2.04-.53,4.44-1.45,6.41-2.56,4.09-2.31,7.61-5.57,8.81-10.41.03-.13.3-.2.32-.32.07-.4.07-1.53,0-1.92-.02-.12-.28-.19-.32-.32-.06-.19.06-.44,0-.64-.03-.1-1.27-1.34-1.44-1.44-.07-.04-.22.05-.32,0-.13-.06-.2-.27-.32-.32-.17-.07-.43.06-.64,0-.13-.04-.2-.3-.32-.32-.35-.06-1.25-.06-1.6,0ZM100.72,142.2c-.12.02-.2.3-.32.32-.56.11-1.38.12-1.92.32-1.94.71-5.11,3.73-5.92,5.6-.38.87-.62,2.25-.96,3.2-2.32,6.45-4.8,13.31-7.05,19.86-1.7,4.98-3.21,9.77-4.8,14.73-.17.54-.88,1.77-.96,2.24-.08.44-.09,2.16,0,2.56.03.11.26.18.32.32.05.1-.04.25,0,.32.13.21,1.55,1.63,1.76,1.76.07.04.22-.05.32,0,.14.06.21.29.32.32.4.09,2.13.08,2.56,0,.12-.02.19-.28.32-.32.21-.06.47.07.64,0,.13-.05.19-.26.32-.32.1-.05.25.04.32,0,.78-.47,1.1-1.6,1.44-2.4,1.43-3.4,2.55-7.07,3.84-10.57.09-.24-.08-.97.48-1.12.47-.13.56.63.96,0h20.82c1.01.65.82,1.88,1.44,2.72.75,2.73,1.83,5.56,2.88,8.33.19.49.3,1.4.64,1.92.52.78,1.27,1.12,2.08,1.44.14.05.2.29.32.32.4.09,2.48.09,2.88,0,.1-.02.75-.52.96-.64.08-.05.25.05.32,0,.67-.43.82-1.29,1.44-1.76-.25-.62.4-1.31.32-1.6-.04-.13-.29-.2-.32-.32-.15-.66-.1-1.51-.32-2.24-1.45-4.73-3.48-9.69-5.12-14.41-2.14-6.12-4.28-12.23-6.41-18.26-.84-2.38-1.57-5.53-2.88-7.69-.2-.33-.77-.5-.64-.96-2.4-2.87-6.35-4.23-10.09-3.68ZM139.8,142.2c-.12.02-.19.28-.32.32-.21.06-.47-.07-.64,0-.13.05-.19.26-.32.32-.1.05-.25-.04-.32,0-.68.41-1.35,1.5-1.76,2.08v45.8c.56.82.87,1.81,1.76,2.4.13.09.75.23.96.32.14.05.2.29.32.32.37.08,2.19.08,2.56,0,.1-.02.75-.52.96-.64.08-.05.25.05.32,0,.78-.51,1.12-1.27,1.44-2.08.05-.14.29-.2.32-.32v-45.16c-.48-.26-.23-.65-.32-.96-.03-.12-1.57-1.65-1.76-1.76-.07-.04-.22.05-.32,0-.13-.06-.2-.27-.32-.32-.17-.07-.43.06-.64,0-.13-.04-.2-.3-.32-.32-.35-.06-1.25-.06-1.6,0ZM158.69,142.2c-.09.02-.46.54-.96.32-.47.62-1.34.77-1.76,1.44-.09.15-.23.74-.32.96-.05.14-.29.2-.32.32-.1.44-.07,2.07,0,2.56.03.21.56,1.31.64,1.6,3.63,12.71,7.87,24.7,11.53,37.15,2.27,4.98,6.63,8.04,12.33,7.21.12-.02.19-.29.32-.32.29-.06.69.07.96,0,.3-.08,1.22-.75,1.6-.96,4.56-2.58,5.4-6.8,6.89-11.37,3.3-10.13,6.94-20.28,10.25-30.43.23-.72.87-2.39.96-2.88.08-.47.1-2.45,0-2.88-.03-.11-.26-.18-.32-.32-.05-.1.04-.25,0-.32-.11-.19-1.64-1.73-1.76-1.76-.2-.06-.45.06-.64,0-.13-.04-.2-.3-.32-.32-.39-.07-1.53-.07-1.92,0-.12.02-.19.28-.32.32-.21.06-.47-.07-.64,0-.13.05-.19.26-.32.32-.1.05-.25-.04-.32,0-.18.1-1.02.95-1.12,1.12-.05.08-.26.51-.32.64-.08.18.07.45,0,.64-.84,2.11-1.51,4.2-2.24,6.41-3.18,9.54-6.54,19.45-9.93,29.14-.4,1.16-.56,2.76-1.28,3.84-.99,1.5-2.21,1.5-3.2,0-.86-1.3-1.43-4.25-1.92-5.76-3.46-10.64-6.66-21.61-10.25-32.35-.21-.62-.15-1.5-.64-2.24-.15-.22-1.64-1.73-1.76-1.76-.2-.06-.45.06-.64,0-.13-.04-.2-.3-.32-.32-.39-.07-1.53-.07-1.92,0ZM215.86,179.03h20.98c.51.76.85-.12,1.28,0,.05.02.79.75.8.8.89,3.08,2.14,6.02,3.2,8.97.29.82.42,2.07.96,2.88.57.87,1.48,1.4,2.4,1.76.14.05.2.29.32.32.37.08,1.84.07,2.24,0,.12-.02.19-.28.32-.32.21-.06.47.07.64,0,.13-.05.19-.26.32-.32.1-.05.25.04.32,0,.63-.37,1.06-1.25,1.44-1.76-.16-.62.5-1.01.32-1.6-.04-.13-.3-.2-.32-.32-.18-1.08-.25-2.11-.64-3.2-2.84-7.89-5.89-15.92-8.65-23.7-1.06-2.98-2.18-6.08-3.2-8.97-.46-1.3-.76-2.92-1.28-4.16-.48-1.15-1.57-2.95-2.24-3.84-.17-.23-2.85-2.35-3.04-2.4-.21-.06-.48.07-.64,0-.21-.1-.81-.6-.96-.64-.27-.07-.67.06-.96,0-.13-.03-.2-.3-.32-.32-.79-.12-3.05-.12-3.84,0-.12.02-.2.3-.32.32-.56.11-1.38.12-1.92.32-3.09,1.14-5.55,4.67-6.57,7.53-4.21,11.83-8.28,23.87-12.17,35.87-.18.57-.87,1.75-.96,2.24-.08.44-.09,2.16,0,2.56.03.11.26.18.32.32.05.1-.04.25,0,.32.11.19,1.64,1.73,1.76,1.76.2.06.45-.06.64,0,.13.04.2.3.32.32.44.08,2.15.09,2.56,0,.1-.02.75-.52.96-.64.08-.05.25.05.32,0,.23-.15.97-.89,1.12-1.12.1-.15.57-1.11.64-1.28,1.27-3.17,1.97-7.04,3.2-10.25.16-.41.78-.91.64-1.44ZM219.22,204.33c-.12.02-.19.28-.32.32-.21.06-.47-.07-.64,0-.13.05-.19.26-.32.32-.1.05-.25-.04-.32,0-.18.11-.65.6-.8.8-.34.45-.7,1.37-.96,1.92-.27.59-.91,1.77-1.28,2.24-.89,1.14-3.43,3.16-4.64,3.68-1.02.45-3.13,1.04-4.16,1.28-3.35.78-7.27.7-10.57,1.6-.15.04-.78.57-.96.64-3.47,1.32-5.16,2.41-7.53,5.28-.55.67-1.28,1.12-1.6,1.92-.07.17.06.43,0,.64-.04.13-.3.2-.32.32-.06.35-.06,1.25,0,1.6.02.12.28.19.32.32.06.21-.07.47,0,.64.05.13.26.19.32.32.05.1-.04.25,0,.32.12.2,1.25,1.32,1.44,1.44.07.04.22-.05.32,0,.14.06.21.29.32.32.38.09,2.5.09,2.88,0,.11-.03.18-.26.32-.32.1-.05.25.04.32,0,.39-.23,1.38-1.34,1.76-1.76.05-.06-.05-.26,0-.32,1.24-1.36,2.63-2.69,4.32-3.36,3.62-1.43,8.38-1.26,12.17-2.24.38-.1.85-.2,1.28-.32.15-.04.78-.58.96-.64,1.3-.46,1.89-.58,3.2-1.28,3.64-1.94,6.8-4.8,8.49-8.81.3-.71.44-1.11.64-1.92.03-.13.3-.2.32-.32.05-.29.05-.99,0-1.28-.02-.12-.28-.19-.32-.32-.06-.21.07-.47,0-.64-.05-.13-.26-.19-.32-.32-.05-.1.04-.25,0-.32-.1-.18-.95-1.02-1.12-1.12-.07-.04-.22.05-.32,0-.13-.06-.2-.27-.32-.32-.17-.07-.43.06-.64,0-.13-.04-.2-.3-.32-.32-.35-.06-1.25-.06-1.6,0ZM102.65,211.7c-.11.03-.18.26-.32.32-.1.05-.25-.04-.32,0-.18.11-.65.6-.8.8-.05.06.05.24,0,.32-.15.22-.6.49-.64.64-.09.31.16.7-.32.96-.27,1.68.39,2.77,1.44,4,1.77,1.25,3.41,1.52,5.44,1.92.98.2,1.51.21,2.56.32.12.01.21.31.32.32,2.48.2,6.09-.37,8.65-.64.12-.01.21-.31.32-.32,1.33-.11,3.84-.16,5.12,0,.12.01.2.3.32.32.39.07.91-.08,1.28,0,.12.03.78.57.96.64s.46-.08.64,0c1.87.82,4.28,3.4,4.96,5.28.05.13.29.2.32.32.07.27-.06.67,0,.96.03.13.3.2.32.32.18,1.2.05,3.81-.32,4.8-.26.71-.69,1.56-.96,2.24-.26.64-.42.84-.64,1.6-.04.13-.29.2-.32.32-.19.79.27,1.06.32,1.28.07.28-.07.69,0,.96.03.12.26.18.32.32.05.1-.04.25,0,.32.1.18.95,1.02,1.12,1.12.07.04.22-.05.32,0,.13.06.2.27.32.32.17.07.43-.06.64,0,.13.04.2.3.32.32.35.06,1.25.06,1.6,0,.12-.02.19-.28.32-.32.21-.06.47.07.64,0,.13-.05.19-.26.32-.32.1-.05.25.04.32,0,1.12-.66,2.25-2.77,2.72-4,1.63-3.17,2.03-7.24,1.28-10.89-.32-1.58-1.72-3.52-2.24-5.12-4.73-6.64-11.24-9.58-19.7-8.81-1.63.15-3.76.83-5.44.96-3.02.23-5.66-.62-8.33-1.28-.13-.03-.2-.3-.32-.32-.44-.08-2.16-.09-2.56,0Z"/>
  <path d="M232.2,98.64c-.06.06.08.33,0,.48-.34.62-1.15,1.36-1.6,1.92-4,5.03-7.63,6.49-13.29,8.81-4.82,1.97-10.62,4.58-12.65,10.09-.26.7-.2,1.54-.32,2.24-.02.12-.31.2-.32.32-.22,1.77.35,4.52,0,6.09-.03.11-.26.18-.32.32-.05.1.04.25,0,.32-.13.22-1.2,1.28-1.44,1.44-.07.05-.24-.05-.32,0-.21.12-.86.62-.96.64-.35.07-1.55.07-1.92,0-.12-.02-.19-.28-.32-.32-.21-.06-.47.07-.64,0-.13-.05-.19-.26-.32-.32-.1-.05-.25.04-.32,0-.16-.09-.69-.64-.8-.8-.05-.07.05-.24,0-.32-.15-.24-.57-.76-.64-.96-.07-.18.06-.44,0-.64-.04-.13-.3-.2-.32-.32-.2-1.15-.15-5.48,0-6.73.01-.12.3-.2.32-.32.18-1.01.23-2.17.64-3.2,2.2-5.55,6.2-9.41,11.37-12.33,6.33-3.57,10.82-3.25,16.17-9.13.44-.49,2.82-2.66,2.88-2.88.07-.25.05-1.3,0-1.6-.02-.12-.28-.19-.32-.32-1.4-4.9-6.23-10.54-10.41-13.61-11.42-8.4-31.85-10.28-39.55,4-.38,1.06-1.38,2.76-1.6,3.84-.27,1.32-.1,3.01-.64,4.16v42.92c-.43.63-1.05,1.61-1.76,2.08-.07.05-.24-.05-.32,0-.21.12-.86.62-.96.64-.35.08-1.9.08-2.24,0-.12-.03-.18-.27-.32-.32-.76-.3-1.63-.69-2.08-1.44-.04-.07.05-.22,0-.32-.06-.13-.27-.2-.32-.32-.1-.25.17-.71-.32-.96v-43.88c.62-2.29.75-4.69,1.6-7.05,1.97-5.46,7.68-12.12,12.97-14.57,2.24-1.04,5.01-2.34,7.37-2.88,15.82-3.67,33.82,4.14,43.08,17.77,1.66,2.41,3.51,5.55,4.16,8.33.11.48-.02,1.52.8,1.76.21.06.48-.07.64,0,6.41,2.98,12.04,6.57,16.49,12.33,3.86,4.99,6.11,10.5,7.37,16.33.76,3.56,1.54,8.83.96,12.81-.02.12-.53.52-.32,1.28.08.31,3.56,3.46,4.16,4.16,15.34,17.87,14.24,47.94-3.84,63.73-.16,2.39.21,5.01,0,7.37-.28,3.11-1.27,6.72-2.24,9.61-3.16,9.39-9.28,16.78-18.1,21.62-1.44.79-3.47,1.88-4.8,2.24-.49.13-1.04-.23-1.44.48l-.32,1.6c-3.5,8.14-9.64,14.65-17.45,18.74-3.63,1.89-8.01,3.59-11.85,4.48-13.67,3.17-30.74.39-39.87-11.37-.36-.46-1.08-.74-.96-1.44-.46.22-.95.73-1.28,1.12-4.05,4.83-9.54,8.4-15.53,10.41-12.84,4.3-27.23,2.78-39.07-3.84-6.38-3.72-13.86-11.77-15.85-19.06-.06-.24.07-.73,0-.8s-.56.06-.8,0c-3.21-.87-6.54-2.8-9.29-4.8-8-5.82-13.15-13.6-15.21-23.22-.49-2.28-1.12-4.98-1.28-7.37-.1-1.5.32-4.62,0-5.76-.06-.24-2.14-2.08-2.56-2.56-3.52-4.08-6.91-9.8-8.65-15.05-2.18-6.57-2.94-15.79-1.92-23.06s4.82-16.72,9.93-22.74c.6-.71,4.08-3.85,4.16-4.16.11-.4.05-2.03,0-2.56-.47-4.95-.16-9.15.96-13.77,2.69-11.09,9.21-19.25,19.38-24.82,1.47-.81,2.59-1.47,4.16-1.92.84-.24.68-1.31.8-1.76.73-2.68,2.8-5.9,4.48-8.33,6.03-8.69,14.61-14.52,24.5-17.13,3.3-.87,8.16-1.88,11.85-1.6.11,0,.21.31.32.32,1.66.12,3.21-.01,4.8.32,11.62,2.42,21.2,11.52,22.9,23.54.66,9.06.17,18.59.32,27.86-.48.26-.23.65-.32.96-.03.12-1.57,1.65-1.76,1.76-.07.04-.22-.05-.32,0-.14.06-.21.29-.32.32-.43.1-2.41.08-2.88,0-.12-.02-.19-.28-.32-.32-.19-.06-.44.06-.64,0-.12-.03-1.73-1.64-1.76-1.76-.09-.31.16-.7-.32-.96v-24.98c-.54-1.06-.31-2.62-.64-3.84-1.25-4.68-4.43-8.73-8.49-11.37-.29-.19-1.2-.94-1.28-.96-1.78-.51-3.25-1.15-5.12-1.6-.38-.09-1.61-.6-1.92-.64-1.82-.22-6.15-.19-8.01,0-1.08.11-2.75.69-3.84.96-10.25,2.55-19.01,9.45-22.9,19.7-.41,1.07-.62,1.97-.96,2.88-.25.67-.92,1.67-1.28,2.24-.08.12-1.24,1-1.44,1.12-.75.44-1.9.66-2.56.96-9.71,4.41-16.97,12.07-18.74,22.58-.28,1.69-.11,3.4-.32,5.12-.27,2.22-.03,5.26.32,7.69.02.12.3.2.32.32.05.29.05.99,0,1.28-.02.12-.29.19-.32.32-.06.29.07.69,0,.96-.03.12-.26.18-.32.32-.05.1.04.25,0,.32-.3.5-1.6,2.01-2.08,2.4-2.72,2.23-5.13,4.81-6.89,7.85-1.59,2.75-3.5,7.38-4.16,10.25s-.67,5.56-.96,8.65c-.25,2.69-.08,6.09.32,8.97.75,5.36,3.96,12.9,7.69,17.29,1.17,1.38,4.04,3.52,4.8,4.8.04.07-.05.22,0,.32.06.13.27.2.32.32.07.17-.06.43,0,.64.04.13.3.2.32.32.44,2.46-.22,6.27,0,8.97.05.64.52,2.19.64,2.88,1.5,8.46,5.94,16.57,13.61,21.3,2.35,1.45,4.9,2.38,7.37,3.2.54.18,1.37.27,1.92.64.27.18,1.26,1.17,1.44,1.44.34.52.45,1.43.64,1.92.48,1.26,1.06,2.66,1.6,3.84,9.39,20.46,44.85,23.76,56.69,4.16.16-.34.91-1.7.96-1.92.16-.76-.07-2.01,0-2.88,0-.11.31-.21.32-.32.25-3.69-.23-8.04-1.28-11.21-.48-1.44-1.13-2.84-1.6-4.16-2.06-5.82-2.9-11.32-2.24-17.61.07-.69-.13-1.64,0-2.24.03-.12.27-.18.32-.32.3-.76.69-1.63,1.44-2.08.07-.04.22.05.32,0,.13-.06.2-.27.32-.32.17-.07.43.06.64,0,.13-.04.2-.3.32-.32.35-.06,1.25-.06,1.6,0,.12.02.19.28.32.32.21.06.47-.07.64,0,.13.05.19.26.32.32.1.05.25-.04.32,0,.2.12,1.32,1.25,1.44,1.44.04.07-.05.22,0,.32.06.14.29.21.32.32.08.37-.07.89,0,1.28.06.33.48.71.32,1.6-.98,5.38.11,10.27,1.92,15.05,1.29,3.39,2.02,5.36,2.56,8.97.14.91.58,2.66.64,3.52.17,2.58-.42,6.32,0,8.65.02.12.28.19.32.32.18.62.28,1.29.64,1.92,1.46,2.57,4.75,5.89,7.21,7.53,16.44,10.92,45.69,3.01,50.76-17.45.68-.61.94-1.54,1.76-2.08.52-.35,1.36-.45,1.92-.64,6.31-2.11,10.62-4.7,14.89-10.09,3.53-4.45,4.97-8.06,6.09-13.45.1-.47.6-1.83.64-2.24.26-2.53.18-4.68,0-7.05-.06-.74-.14-2.59,0-3.2.03-.12.27-.18.32-.32.21-.54.48-1.05.64-1.6l5.44-5.44c3.4-4.55,6.34-10.19,7.37-15.69.91-4.9,1.01-12.1,0-16.97-1.1-5.3-4.01-11.73-7.69-16.01-1.82-2.12-4.21-3.99-6.09-6.09.22-.5-.3-.87-.32-.96-.12-.65-.06-2.17,0-2.88,0-.11.31-.21.32-.32,1.11-14.83-4.13-27.24-18.1-34.11-.6.24-2.44-1.25-2.72-.96Z"/>
  <path d="M100.72,142.2c3.74-.55,7.69.82,10.09,3.68-.13.46.44.63.64.96,1.31,2.15,2.05,5.31,2.88,7.69,2.12,6.03,4.27,12.13,6.41,18.26,1.65,4.72,3.68,9.68,5.12,14.41.22.73.17,1.59.32,2.24.03.12.28.19.32.32.08.29-.57.98-.32,1.6-.62.47-.77,1.34-1.44,1.76-.07.05-.24-.05-.32,0-.21.12-.86.62-.96.64-.4.09-2.49.09-2.88,0-.12-.03-.18-.27-.32-.32-.82-.32-1.57-.66-2.08-1.44-.34-.52-.45-1.43-.64-1.92-1.05-2.77-2.14-5.6-2.88-8.33-.62-.84-.43-2.07-1.44-2.72h-20.82c-.4.63-.49-.13-.96,0-.56.15-.39.88-.48,1.12-1.29,3.5-2.41,7.17-3.84,10.57-.34.8-.66,1.94-1.44,2.4-.07.04-.22-.05-.32,0-.13.06-.2.27-.32.32-.17.07-.43-.06-.64,0-.13.04-.2.3-.32.32-.44.08-2.16.09-2.56,0-.11-.03-.18-.26-.32-.32-.1-.05-.25.04-.32,0-.21-.13-1.63-1.55-1.76-1.76-.04-.07.05-.22,0-.32-.06-.14-.29-.21-.32-.32-.09-.4-.08-2.13,0-2.56.08-.47.79-1.7.96-2.24,1.59-4.97,3.1-9.75,4.8-14.73,2.24-6.55,4.73-13.4,7.05-19.86.34-.95.58-2.33.96-3.2.82-1.88,3.99-4.89,5.92-5.6.54-.2,1.36-.21,1.92-.32.12-.02.2-.3.32-.32ZM111.13,171.34c.17-.53-.26-.62-.32-.8-2.1-6.07-4.19-11.97-6.41-17.94-.1-.28-.1-.92-.32-1.28-.28-.47-1.47-1.63-2.08-1.44-.32.32-1.32.68-1.44,1.12-.06.21.07.48,0,.64-.32.69-.41.92-.64,1.6-1.83,5.47-3.77,10.92-5.76,16.33l-.32,1.76h17.29Z"/>
  <path d="M215.86,179.03c.14.53-.48,1.03-.64,1.44-1.23,3.21-1.93,7.08-3.2,10.25-.07.18-.54,1.13-.64,1.28-.15.23-.89.97-1.12,1.12-.07.05-.24-.05-.32,0-.21.12-.86.62-.96.64-.41.09-2.12.08-2.56,0-.12-.02-.19-.28-.32-.32-.19-.06-.44.06-.64,0-.12-.03-1.65-1.57-1.76-1.76-.04-.07.05-.22,0-.32-.06-.14-.29-.21-.32-.32-.09-.4-.08-2.13,0-2.56.09-.49.78-1.67.96-2.24,3.89-12,7.97-24.04,12.17-35.87,1.01-2.85,3.47-6.39,6.57-7.53.54-.2,1.36-.21,1.92-.32.12-.02.2-.3.32-.32.79-.12,3.05-.12,3.84,0,.12.02.19.29.32.32.29.06.69-.07.96,0,.15.04.75.54.96.64.16.07.43-.06.64,0,.19.05,2.87,2.18,3.04,2.4.67.89,1.76,2.69,2.24,3.84.52,1.24.82,2.86,1.28,4.16,1.03,2.89,2.15,5.99,3.2,8.97,2.76,7.78,5.8,15.81,8.65,23.7.39,1.09.46,2.13.64,3.2.02.12.28.19.32.32.18.59-.48.99-.32,1.6-.38.51-.81,1.39-1.44,1.76-.07.04-.22-.05-.32,0-.13.06-.2.27-.32.32-.17.07-.43-.06-.64,0-.13.04-.2.3-.32.32-.4.07-1.87.08-2.24,0-.12-.03-.18-.27-.32-.32-.92-.36-1.83-.89-2.4-1.76-.54-.81-.67-2.06-.96-2.88-1.06-2.95-2.32-5.89-3.2-8.97-.02-.05-.75-.79-.8-.8-.44-.12-.77.76-1.28,0h-20.98ZM235.72,171.34c.17-.53-.26-.62-.32-.8-2.06-5.9-4-12.12-6.41-17.94-.08-.18.08-.46,0-.64-.12-.28-.53-1.11-.64-1.28-.29-.45-.56-.37-.8-.48-.14-.06-.2-.28-.32-.32-.61-.19-.74.23-.96.32-.17.07-.42-.06-.48,0-.06.06.08.33,0,.48-.12.22-.59.47-.64.64-1.42,4.81-3.21,9.46-4.8,14.09-.6,1.74-1.02,3.47-1.6,5.12-.06.19-.49.27-.32.8h17.29Z"/>
  <path d="M158.69,142.2c.39-.07,1.53-.07,1.92,0,.12.02.19.28.32.32.19.06.44-.06.64,0,.12.03,1.62,1.54,1.76,1.76.49.74.43,1.63.64,2.24,3.59,10.74,6.79,21.7,10.25,32.35.49,1.51,1.06,4.46,1.92,5.76.99,1.5,2.21,1.5,3.2,0,.72-1.08.88-2.69,1.28-3.84,3.39-9.69,6.75-19.6,9.93-29.14.73-2.21,1.4-4.3,2.24-6.41.07-.19-.08-.46,0-.64.06-.13.27-.56.32-.64.1-.18.95-1.02,1.12-1.12.07-.04.22.05.32,0,.13-.06.2-.27.32-.32.17-.07.43.06.64,0,.13-.04.2-.3.32-.32.39-.07,1.53-.07,1.92,0,.12.02.19.28.32.32.19.06.44-.06.64,0,.12.03,1.65,1.57,1.76,1.76.04.07-.05.22,0,.32.06.14.29.21.32.32.1.43.08,2.41,0,2.88-.09.49-.73,2.17-.96,2.88-3.31,10.15-6.95,20.29-10.25,30.43-1.49,4.57-2.33,8.79-6.89,11.37-.38.21-1.3.88-1.6.96-.27.07-.67-.06-.96,0-.13.03-.2.3-.32.32-5.7.83-10.06-2.23-12.33-7.21-3.65-12.45-7.9-24.44-11.53-37.15-.08-.29-.61-1.39-.64-1.6-.07-.49-.1-2.12,0-2.56.03-.12.27-.18.32-.32.09-.22.23-.81.32-.96.42-.67,1.29-.82,1.76-1.44.5.22.87-.3.96-.32Z"/>
  <path d="M102.65,211.7c.4-.09,2.13-.08,2.56,0,.12.02.19.29.32.32,2.66.66,5.3,1.51,8.33,1.28,1.68-.13,3.81-.81,5.44-.96,8.46-.77,14.97,2.16,19.7,8.81.52,1.6,1.92,3.55,2.24,5.12.75,3.65.35,7.72-1.28,10.89-.47,1.24-1.61,3.34-2.72,4-.07.04-.22-.05-.32,0-.13.06-.2.27-.32.32-.17.07-.43-.06-.64,0-.13.04-.2.3-.32.32-.35.06-1.25.06-1.6,0-.12-.02-.19-.28-.32-.32-.21-.06-.47.07-.64,0-.13-.05-.19-.26-.32-.32-.1-.05-.25.04-.32,0-.18-.1-1.02-.95-1.12-1.12-.04-.07.05-.22,0-.32-.06-.14-.29-.2-.32-.32-.07-.27.07-.68,0-.96-.05-.22-.51-.49-.32-1.28.03-.12.28-.19.32-.32.22-.76.38-.96.64-1.6.27-.68.7-1.53.96-2.24.37-1,.5-3.61.32-4.8-.02-.12-.29-.19-.32-.32-.06-.29.07-.69,0-.96-.03-.12-.27-.19-.32-.32-.68-1.88-3.09-4.47-4.96-5.28-.18-.08-.45.07-.64,0s-.84-.62-.96-.64c-.37-.08-.89.07-1.28,0-.12-.02-.2-.31-.32-.32-1.28-.16-3.8-.11-5.12,0-.11,0-.2.31-.32.32-2.55.27-6.16.84-8.65.64-.11,0-.2-.31-.32-.32-1.06-.11-1.58-.12-2.56-.32-2.03-.41-3.67-.67-5.44-1.92-1.06-1.24-1.71-2.32-1.44-4,.48-.26.23-.65.32-.96.04-.15.49-.42.64-.64.05-.08-.05-.26,0-.32.15-.2.62-.69.8-.8.07-.04.22.05.32,0,.14-.06.21-.29.32-.32Z"/>
  <path d="M131.79,96.08c.35-.06,1.25-.06,1.6,0,.12.02.19.28.32.32.21.06.47-.07.64,0,.13.05.19.26.32.32.1.05.25-.04.32,0,.17.1,1.41,1.34,1.44,1.44.06.2-.06.45,0,.64.04.13.3.2.32.32.07.4.07,1.53,0,1.92-.02.12-.29.19-.32.32-1.2,4.84-4.72,8.1-8.81,10.41-1.97,1.11-4.36,2.03-6.41,2.56-3.03.78-6.01.91-8.97,2.24-1.23.55-2.9,1.54-3.68,2.72-.05.07.05.24,0,.32-.14.24-.57.76-.64.96-.07.18.06.44,0,.64-.04.13-.3.2-.32.32-.11.61-.09,2.57,0,3.2.02.12.3.2.32.32.11.56.12,1.38.32,1.92.13.36.9,1.32.96,1.6.07.34.08,2.27,0,2.56-.04.14-1.94,2.04-2.08,2.08-.2.06-.45-.06-.64,0-.13.04-.2.3-.32.32-.44.08-1.8.08-2.24,0-.12-.02-.19-.28-.32-.32-.19-.06-.44.06-.64,0-.12-.03-1.62-1.54-1.76-1.76-.59-.89-1-2.44-1.28-3.52-.1-.39-.6-1.61-.64-1.92-.13-1.07-.02-1.47-.32-2.56-.12-.42.29-.51.32-.64.16-.7-.11-1.79,0-2.56.02-.12.3-.2.32-.32.26-1.32.59-2.25.96-3.52.05-.16.52-.42.64-.64,1.66-2.95,3.07-4.31,5.92-5.92.81-.46,2.44-1.39,3.2-1.6,3.27-.89,6.73-1.18,9.93-2.24,1.4-.47,3.4-1.11,4.48-1.92.51-.38,2.4-2.24,2.72-2.72.57-.87,1.03-2.63,1.6-3.52.43-.67,1.29-.82,1.76-1.44.5.22.87-.3.96-.32Z"/>
  <path d="M139.8,142.2c.35-.06,1.25-.06,1.6,0,.12.02.19.28.32.32.21.06.47-.07.64,0,.13.05.19.26.32.32.1.05.25-.04.32,0,.19.11,1.73,1.64,1.76,1.76.09.31-.16.7.32.96v45.16c-.03.12-.27.18-.32.32-.32.82-.66,1.57-1.44,2.08-.07.05-.24-.05-.32,0-.21.12-.86.62-.96.64-.37.08-2.19.08-2.56,0-.12-.03-.18-.27-.32-.32-.21-.09-.83-.23-.96-.32-.89-.59-1.2-1.58-1.76-2.4v-45.8c.41-.58,1.08-1.67,1.76-2.08.07-.04.22.05.32,0,.13-.06.2-.27.32-.32.17-.07.43.06.64,0,.13-.04.2-.3.32-.32Z"/>
  <path d="M219.22,204.33c.35-.06,1.25-.06,1.6,0,.12.02.19.28.32.32.21.06.47-.07.64,0,.13.05.19.26.32.32.1.05.25-.04.32,0,.18.1,1.02.95,1.12,1.12.04.07-.05.22,0,.32.06.13.27.2.32.32.07.17-.06.43,0,.64.04.13.3.2.32.32.05.29.05.99,0,1.28-.02.12-.29.19-.32.32-.2.81-.34,1.21-.64,1.92-1.69,4.01-4.84,6.87-8.49,8.81-1.31.7-1.9.82-3.2,1.28-.18.06-.82.6-.96.64-.43.12-.91.22-1.28.32-3.79.98-8.55.81-12.17,2.24-1.69.67-3.08,2-4.32,3.36-.05.06.05.26,0,.32-.38.42-1.37,1.53-1.76,1.76-.07.04-.22-.05-.32,0-.14.06-.21.29-.32.32-.38.09-2.5.09-2.88,0-.11-.03-.18-.26-.32-.32-.1-.05-.25.04-.32,0-.2-.12-1.32-1.25-1.44-1.44-.04-.07.05-.22,0-.32-.06-.13-.27-.2-.32-.32-.07-.17.06-.43,0-.64-.04-.13-.3-.2-.32-.32-.06-.35-.06-1.25,0-1.6.02-.12.28-.19.32-.32.06-.21-.07-.47,0-.64.32-.8,1.05-1.26,1.6-1.92,2.37-2.88,4.06-3.97,7.53-5.28.19-.07.81-.6.96-.64,3.3-.9,7.22-.82,10.57-1.6,1.04-.24,3.14-.83,4.16-1.28,1.21-.53,3.76-2.54,4.64-3.68.37-.47,1.01-1.66,1.28-2.24.26-.55.62-1.47.96-1.92.15-.2.62-.69.8-.8.07-.04.22.05.32,0,.13-.06.2-.27.32-.32.17-.07.43.06.64,0,.13-.04.2-.3.32-.32Z"/>
  <path class="cls-1" d="M111.13,171.34h-17.29l.32-1.76c2-5.41,3.93-10.87,5.76-16.33.23-.69.32-.91.64-1.6.07-.16-.06-.43,0-.64.13-.44,1.12-.8,1.44-1.12.61-.18,1.8.97,2.08,1.44.22.37.22,1.01.32,1.28,2.21,5.97,4.3,11.86,6.41,17.94.06.18.49.27.32.8Z"/>
  <path class="cls-1" d="M235.72,171.34h-17.29c-.17-.53.26-.62.32-.8.58-1.65,1-3.39,1.6-5.12,1.6-4.64,3.38-9.28,4.8-14.09.05-.17.52-.42.64-.64.08-.15-.06-.42,0-.48.06-.06.31.07.48,0,.22-.09.35-.51.96-.32.12.04.18.26.32.32.24.11.51.03.8.48.11.17.52,1,.64,1.28.08.18-.08.46,0,.64,2.4,5.82,4.35,12.03,6.41,17.94.06.19.49.27.32.8Z"/>
</svg>