<?xml version="1.0" encoding="UTF-8"?>
<svg id="Layer_1" data-name="Layer 1" xmlns="http://www.w3.org/2000/svg" viewBox="0 0 1024 1024">
  <path d="M724.09,308.06c-1.36.59-12.88,16.82-19.77,21.77-20.77,14.92-58.87,18.38-66.63,46.37-3.03,10.92,2.56,31.02-11.45,33.57-24.95,4.55-16.01-38.06-9.73-50.75,17.01-34.37,47.95-31.9,73.36-50.64,5.68-4.19,18.59-15.73,17.89-22.62-3.13-30.7-56.03-61.33-84.42-63.62-116.5-9.4-69.33,122.04-79.8,191.91-6.62,12-23.03,10.51-25.45-3.65-3.56-20.81-1.91-131.9,3.19-151.62,24.64-95.33,162.89-72.79,205.23,3.2,2.48,4.44,7.78,20.88,8.92,22.08,1.07,1.13,22.61,10.85,27.69,14.31,31.73,21.61,49.39,56.23,52.84,94.16.57,6.29-1.67,22.09-.82,25.74.34,1.45,16.6,18.17,19.65,22.43,34.93,48.76,35.76,121.03.02,169.64-2.88,3.92-17.85,18.43-18.3,19.7-1.89,5.29.25,15.34-.56,21.44-5.2,39.54-21.2,73.42-55.84,95.16-5.29,3.32-25.59,11.33-26.63,12.37s-9.9,21.78-13.7,27.3c-43.55,63.36-147.5,73.42-201.83,18.21-1.76-1.78-4.56-7.4-5-7.52-1.28-.36-15.39,15.62-19.06,18.41-57.44,43.67-157.11,29.28-195.33-33.5-2.67-4.38-8.95-21.8-9.82-22.68-.6-.6-10.59-3.07-13.11-4.39-33.9-17.7-58.11-45.63-66.17-83.83-2.45-11.59-1.37-32.36-3.69-40.31-.59-2.02-21.06-25.69-25.3-33.7-23.79-44.97-22.14-103.5,3.72-147.32,4.13-7,24.03-28.53,24.58-30.41,1.24-4.26-1.3-19.26-.81-25.82,3-40.17,19.79-72.98,53.14-95.86,4.37-3,25.03-12.9,25.97-14.03,1.46-1.77,8.33-20.3,11.91-26.09,50.72-81.98,196.27-89.53,204.99,23.04.81,10.45,1.21,74.68-1.56,80.38-4.62,9.52-22.25,8.02-24.98-2.84-4.4-17.46,1.35-55.89-.45-76.55-7.26-83.37-115.36-71.08-153.19-14.24-6.31,9.47-12.51,30.47-17.39,35.61s-21,10.14-28.31,14.69c-27.46,17.09-43.43,47.73-43.95,80.03-.15,9.4,4.35,23.11,1.37,31.39-2.01,5.58-19.8,20.4-25.29,28.71-26.88,40.61-26.46,101.83,2.39,141.2,4.23,5.77,17.53,16.99,19.2,21.8,3.07,8.8.91,27.89,2.66,39.34,4.89,31.94,24.1,56.93,52.17,71.83,6.62,3.52,16.65,4.05,21.92,9.08s10.91,25.45,18.04,34.96c31.34,41.81,103.63,52.04,146.31,22.48,55.63-38.52,5.54-88.32,9.07-138.93.65-9.35,2.02-20.81,14.5-20.5,19.08.47,11.58,32.28,13.83,46.25s10.66,27.1,13.4,41.6c6.15,32.49-6.7,47.81,24.98,71.02,41.48,30.4,113.93,19.14,145.74-20.92,7.44-9.36,14.52-32.03,19.55-36.45,4.97-4.37,23.39-8.89,32.34-14.66,29.23-18.84,40.44-47.87,43.67-81.32.68-6.99-2.12-13.52-.49-20.5,1.43-6.14,21.52-24.49,26.94-33.05,24.16-38.13,23.83-93.29-.79-131.06-4.92-7.55-25.35-26.46-26.71-30.29-2.71-7.61,1.32-21.39,1.06-30.05-1.02-33.58-19.04-66.9-48.31-83.7-2.17-1.25-16.61-8.19-17.57-7.77Z"/>
  <path d="M313.76,444.26c10.61-1.35,21.09,1.01,28.77,8.7,6.73,6.73,47.45,119.93,49.96,134.03,2.19,12.3-3.25,20.63-16.76,17.76-14.58-3.1-15.25-43.73-25.19-45.8-4.47-.93-63.09-1.37-65.94.29-4.08,2.38-10.92,37.57-17.07,42.78-9.96,8.43-23.46,1.02-22.43-12.43.76-9.98,37.46-115.49,43.43-126.57,5.03-9.33,14.48-17.4,25.24-18.76ZM346,535c-8.49-16.73-12.61-45.73-21.49-61.01-6.3-10.84-9.6-5.38-13.26,2.76-7.79,17.32-12.37,40.19-19.25,58.25h54Z"/>
  <path d="M673.12,559.06c-3.17,2.09-9.75,37.42-16.61,42.95-9.16,7.39-22.78,1.78-22.58-10.52.14-8.54,37.04-114.06,42.89-126.16,10.63-21.98,38.1-30.18,55.59-11.24,6.52,7.06,46.42,116.96,49.61,131.39,1.99,9,2.47,18.21-9.64,19.45-20.9,2.14-19.59-33.35-29.41-45.43-8.41.73-66.95-2.35-69.87-.42ZM735,535c-8.28-16.66-12.67-46.76-21.82-61.68-4.49-7.32-7.18-7.27-11.18.16-8.97,16.69-12.77,43.65-21,61.52h54Z"/>
  <path d="M494.75,444.22c7.84-1.22,12.14,2.49,15.45,9.08,15.96,31.73,20.68,85.17,36.78,118.22,2.12,4.35,4.04,11.35,10.1,7.06,7.75-5.48,36.56-113.09,45.07-128.92,11.81-11.81,25.75-4.72,23.39,12.39-1.67,12.13-40.56,124.16-46.57,131.42-17.16,20.7-45.12,12.98-56.14-9.79-6.93-14.31-37.2-108.33-38.56-122.43-.77-8.03,1.47-15.62,10.48-17.02Z"/>
  <path d="M319.72,661.23c7.04-1.8,20.13,4.56,28.75,4.84,13.64.45,27.02-4.56,41.89-2.93,33.33,3.65,57.14,37.34,48.58,70.31-3.14,12.08-19.37,33.3-29.8,15.92-7.1-11.83,11.89-23.79,1.67-44.67-16.99-34.7-75.1.38-95.2-22.8-5.47-6.31-4.28-18.53,4.11-20.67Z"/>
  <path d="M410.76,300.21c15.48-2.18,16.72,11.24,12.42,22.47-15.69,40.9-74.36,30.44-85.38,50.62-8.89,16.28,12.61,38.56-6.72,43.28-22.65,5.52-24.48-32.91-20.1-47.09,13.56-43.93,64.14-25.43,85.02-51.98,4.71-5.98,5.04-15.92,14.77-17.29Z"/>
  <path d="M435.77,444.22c9.2-1.18,15.12,4.81,16.26,13.25,2.79,20.52,3.14,116.29-.02,136.05-2.47,15.48-24.69,16.14-27.07-.97-2.63-18.97-3.08-120.3.03-138.07.94-5.35,5.49-9.58,10.79-10.26Z"/>
  <path d="M683.77,638.22c22.72-2.98,13.76,22.1,5.64,32.69-24.76,32.32-59.37,17.95-81.91,34.09-6.55,4.69-18.13,25.55-28.95,8.94-10.61-16.3,17.8-34.06,31-37.89,20.09-5.83,42.97-1.54,58.41-19.59,5.4-6.31,6.67-17.06,15.8-18.25Z"/>
</svg>